<?xml version="1.0" encoding="UTF-8"?>
<!DOCTYPE svg PUBLIC "-//W3C//DTD SVG 1.1//EN" "http://www.w3.org/Graphics/SVG/1.1/DTD/svg11.dtd">
<!-- Creator: CorelDRAW -->
<svg xmlns="http://www.w3.org/2000/svg" xml:space="preserve" width="1562px" height="465px" version="1.1" style="shape-rendering:geometricPrecision; text-rendering:geometricPrecision; image-rendering:optimizeQuality; fill-rule:evenodd; clip-rule:evenodd"
viewBox="0 0 1578.49 470.16"
 xmlns:xlink="http://www.w3.org/1999/xlink"
 xmlns:xodm="http://www.corel.com/coreldraw/odm/2003">
 <defs>
  <style type="text/css">
   <![CDATA[
    .fil2 {fill:#2C2D2C;fill-rule:nonzero}
    .fil1 {fill:#2C2C2B;fill-rule:nonzero}
    .fil0 {fill:#008BD1;fill-rule:nonzero}
   ]]>
  </style>
 </defs>
 <g id="Camada_x0020_1">
  <metadata id="CorelCorpID_0Corel-Layer"/>
  <g id="_105553258808992">
   <g>
    <path class="fil0" d="M221.37 30.32c-41.45,-44.4 -118.91,-39.46 -173.01,11.05 -54.1,50.5 -64.36,127.44 -22.91,171.84 41.45,44.4 118.91,39.45 173.01,-11.06 54.1,-50.5 64.36,-127.44 22.91,-171.83zm-46 131.77l0 0c-40.81,38.1 -99.26,41.8 -130.55,8.28 -31.3,-33.52 -23.58,-91.58 17.23,-129.68 40.81,-38.09 99.26,-41.8 130.55,-8.28 31.3,33.52 23.58,91.58 -17.23,129.68z"/>
    <path class="fil0" d="M280.2 143.27c-41.45,-44.4 -118.91,-39.46 -173.01,11.05 -54.1,50.5 -64.36,127.44 -22.91,171.84 41.45,44.4 118.9,39.45 173.01,-11.06 54.1,-50.5 64.35,-127.43 22.91,-171.83zm-46 131.77l0 0c-40.81,38.1 -99.26,41.8 -130.55,8.28 -31.3,-33.52 -23.58,-91.58 17.23,-129.68 40.81,-38.09 99.26,-41.8 130.55,-8.28 31.3,33.53 23.58,91.58 -17.23,129.68z"/>
    <path class="fil0" d="M339.2 256.95c-41.45,-44.4 -118.91,-39.45 -173.01,11.05 -54.1,50.51 -64.36,127.44 -22.91,171.84 41.45,44.4 118.91,39.46 173.01,-11.05 54.1,-50.5 64.36,-127.44 22.91,-171.84zm-46 131.78l0 0c-40.8,38.09 -99.26,41.8 -130.55,8.28 -31.3,-33.53 -23.58,-91.59 17.23,-129.68 40.81,-38.1 99.26,-41.81 130.55,-8.28 31.3,33.52 23.58,91.58 -17.23,129.68z"/>
   </g>
   <polygon class="fil1" points="546.88,171.96 491.9,333.24 438.75,333.24 384.69,171.96 430.44,171.96 466.25,298.58 502.77,171.96 "/>
   <path class="fil1" d="M616.21 330.23l2.31 -30.25c7.69,3.17 9.13,3.71 15.26,5.23 6.66,1.65 10.15,2.28 15.98,2.74 6.54,0.51 10.26,0.47 14.51,-0.15 6.42,-0.94 8.94,-4.18 9.57,-5.96 1.17,-3.34 0.36,-5.16 -0.56,-7.29 -0.87,-2.04 -5.13,-4.81 -7.82,-5.98 -2.69,-1.18 -6.07,-2.16 -9.27,-3.1 -3.2,-0.94 -7.04,-2 -10.05,-3.03 -4.81,-1.65 -5.07,-1.37 -12.5,-4.35 -4.27,-1.71 -6.81,-3.5 -9.77,-6.46 -2.61,-2.59 -4.95,-5.71 -6.23,-9.31 -1.29,-3.59 -2.38,-7.79 -2.38,-12.71 0,-6.72 1.43,-13.05 4.36,-17.89 2.93,-4.84 6.43,-8.89 11.3,-11.97 4.88,-3.09 10.51,-5.95 16.79,-7.4 6.29,-1.44 11.77,-2.26 19.97,-2.26 5.31,0 11.18,0.3 16.66,1.01 13.58,1.77 19.24,3.88 24.51,5.92l-3.22 28.89c-5.46,-3.69 -15.18,-6.94 -24.92,-7.75 -12.09,-1.01 -23.32,0.19 -25.83,4.94 -1.36,2.57 -1.15,5.6 2.4,8.67 2.52,2.18 7.13,4.07 18.72,6.97 11.68,2.93 23.46,6.78 27.02,9.85 3.82,3.31 9.66,7.54 12.11,18.5 0.87,3.87 1.49,12.41 -0.46,20.17 -1.73,6.89 -5.26,11.74 -9.53,16.15 -3.18,3.29 -9.55,6.27 -14.17,8.17 -5.56,2.29 -12.03,3.05 -18.81,3.84 -6.55,0.76 -13.66,0.74 -20.83,0.4 -15.29,-0.74 -23.94,-2.33 -35.12,-5.59z"/>
   <path class="fil1" d="M851.7 336.01c-21.57,0 -36.92,-5.43 -49.26,-16.63 -12.33,-11.21 -20.11,-25.22 -20.11,-45.8 0,-19.83 6.41,-35.35 19.21,-46.55 12.79,-11.21 30.11,-16.81 51.93,-16.81 21.48,0 38.18,6.74 50.4,17.94 12.21,11.21 18.47,24.89 18.47,43.32 0,19.91 -6.31,35.64 -18.89,47.2 -12.6,11.56 -29.85,17.33 -51.75,17.33zm0.62 -96.8l0 0c-9.44,0 -14.5,2.77 -19.72,8.78 -5.22,6.01 -7.3,14.16 -7.3,25.17 0,23.03 12.57,34.06 27.02,33.75 15.03,-0.32 26.77,-10.09 27.05,-33.75 0.22,-17.5 -7.77,-33.95 -27.05,-33.95z"/>
   <path class="fil1" d="M1061.43 333.24l-41.59 0c0,0 0.14,-51.51 -0.36,-65.89 -0.65,-18.52 -11.72,-23.02 -18.81,-22.6 -5.58,0.32 -12.92,1.6 -17.06,6.52 -4.13,4.92 -8.16,12.09 -8.7,26.13l-0.12 55.84 -41.58 0 0 -120.39 37.86 0 0 22.18 0.48 0c7.49,-15.06 21.65,-24.08 38.5,-24.81 29.34,-1.28 50.19,11.15 51.38,47.95l0 75.07z"/>
   <path class="fil1" d="M1148.84 333.71c-14.08,1.43 -21.73,2.98 -32.72,2.34 -23.33,-1.37 -39.12,-10.82 -39.12,-40.65l0.23 -109.58 40.89 -12.69 0 39.72 29.1 0 0 29.13 -29.1 0 0.05 47.05c0,12.49 5.34,18.79 15.25,18.79 3.9,0 6.93,0.28 14.05,-1.13l1.37 27.02z"/>
   <path class="fil1" d="M1278.47 285.19l-83.37 -0.05c1.26,17.41 12.22,26.12 32.92,26.12 13.2,0 24.79,-3.12 34.78,-9.37l0 26.7c-11.09,5.94 -25,7.01 -42.72,7.01 -19.37,0 -36.9,-7.15 -46.75,-16.22 -11.15,-10.28 -20.02,-23.84 -20.02,-43.05 0,-25.35 6.62,-38.21 18.18,-49.85 11.56,-11.63 29.33,-16.39 46.2,-16.39 17.5,0 32.93,4.7 42.49,15.08 9.57,10.39 18.02,26.45 18.02,44.26l0.27 15.76zm-37.43 -23.57l0 0c0,-17.18 -8.96,-24.97 -22.86,-24.97 -5.93,0 -12.31,1.02 -16.64,5.94 -4.33,4.92 -5.76,11.69 -6.7,19.03l46.2 0z"/>
   <path class="fil1" d="M1391.41 330.71c-14.07,4.16 -21.58,5.12 -37.36,5.12 -18.42,0 -35.74,-7.69 -48.07,-17.82 -4.96,-4.08 -18.46,-20.92 -18.44,-40.97 0.01,-26.76 7.17,-39.23 20,-50.32 15.15,-13.1 29.45,-16.63 49.91,-16.63 14.14,0 26.63,3.02 32.96,6.77l-2.93 30.44c-6.66,-3.32 -13.51,-6.68 -23.04,-6.68 -10.62,0 -18.8,2.79 -25.01,9 -6.21,6.21 -9.61,14.05 -9.46,24.98 0.1,7.04 4.71,17.88 10.85,22.37 6.84,5 14.61,8.53 25,8.53 9.21,0 13.17,-1.34 24.59,-5.48l1 30.69z"/>
   <path class="fil1" d="M1530.03 333.24l-41.57 0 -0.12 -63.12c0,-17.57 -8.02,-25.33 -20.82,-25.33 -6.56,0 -12.69,3.23 -16.75,8.15 -4.06,4.92 -7.4,18.82 -7.4,26.39l0.03 53.91 -41.58 0 0 -173.28 41.55 0 0 75.44 0.03 -4.74c9.05,-13.83 24.9,-20.57 40.43,-20.57 27.18,0 46.2,16.39 46.2,49.19l0 73.96z"/>
   <g>
    <polygon class="fil1" points="599.34,333.2 557.72,333.2 557.72,212.85 599.34,212.85 "/>
    <path class="fil1" d="M597.51 182.07c0,10.49 -8.43,18.99 -18.82,18.99 -10.39,0 -18.82,-8.5 -18.82,-18.99 0,-10.49 8.43,-19 18.82,-19 10.39,0 18.82,8.51 18.82,19z"/>
   </g>
   <g>
    <polygon class="fil1" points="768.89,333.05 727.27,333.05 727.27,212.7 768.89,212.7 "/>
    <path class="fil1" d="M767.06 181.92c0,10.49 -8.43,18.99 -18.82,18.99 -10.4,0 -18.82,-8.5 -18.82,-18.99 0,-10.49 8.42,-19 18.82,-19 10.39,0 18.82,8.51 18.82,19z"/>
   </g>
   <path class="fil2" d="M1558.56 211.22c-4.72,0 -8.78,1.68 -12.11,5.1 -3.33,3.37 -5,7.46 -5,12.23 0,4.83 1.67,8.92 4.94,12.34 3.34,3.42 7.4,5.11 12.17,5.11 4.73,0 8.79,-1.69 12.12,-5.11 3.33,-3.42 5,-7.51 5,-12.34 0,-4.77 -1.67,-8.86 -5,-12.23 -3.33,-3.42 -7.39,-5.1 -12.12,-5.1zm19.95 17.33c0,5.56 -1.94,10.32 -5.83,14.3 -3.89,3.93 -8.61,5.89 -14.12,5.89 -5.5,0 -10.22,-1.96 -14.11,-5.89 -3.83,-3.92 -5.78,-8.69 -5.78,-14.3 0,-5.55 1.95,-10.26 5.84,-14.19 3.89,-3.87 8.55,-5.83 14.05,-5.83 5.51,0 10.23,1.96 14.12,5.83 3.89,3.93 5.83,8.64 5.83,14.19zm-14.78 -4.37c0,-1.63 -0.5,-2.69 -1.44,-3.26 -0.95,-0.5 -2.5,-0.78 -4.61,-0.78l-3.34 0 0 7.96 3.5 0c1.61,0 2.84,-0.17 3.67,-0.45 1.5,-0.61 2.22,-1.79 2.22,-3.47zm-5.55 -6.73c2.72,0 4.66,0.28 5.94,0.84 2.28,0.95 3.39,2.8 3.39,5.55 0,1.96 -0.72,3.42 -2.11,4.38 -0.78,0.5 -1.83,0.84 -3.17,1.06 1.72,0.28 2.95,0.95 3.73,2.13 0.83,1.18 1.22,2.36 1.22,3.42l0 1.63c0,0.51 0,1.07 0.05,1.68 0.06,0.56 0.12,0.96 0.17,1.12l0.17 0.29 -3.62 0c-0.05,-0.06 -0.05,-0.17 -0.05,-0.23 -0.06,-0.06 -0.06,-0.17 -0.06,-0.22l-0.11 -0.73 0 -1.74c0,-2.58 -0.66,-4.26 -2.05,-5.11 -0.84,-0.44 -2.23,-0.67 -4.28,-0.67l-3.06 0 0 8.7 -3.83 0 0 -22.1 7.67 0z"/>
  </g>
 </g>
</svg>
