<?xml version="1.0" encoding="UTF-8" standalone="no"?>
<!-- Created with Inkscape (http://www.inkscape.org/) -->

<svg
   width="512"
   height="512"
   viewBox="0 0 135.46666 135.46666"
   version="1.1"
   id="svg269"
   inkscape:version="1.1 (c4e8f9e, 2021-05-24)"
   sodipodi:docname="logo0.svg"
   inkscape:export-filename="/Users/eliasribeiro/dev/github.com/elias-rf/vt-express/client/public/img/logo192.png"
   inkscape:export-xdpi="36"
   inkscape:export-ydpi="36"
   xmlns:inkscape="http://www.inkscape.org/namespaces/inkscape"
   xmlns:sodipodi="http://sodipodi.sourceforge.net/DTD/sodipodi-0.dtd"
   xmlns="http://www.w3.org/2000/svg"
   xmlns:svg="http://www.w3.org/2000/svg">
  <sodipodi:namedview
     id="namedview271"
     pagecolor="#505050"
     bordercolor="#eeeeee"
     borderopacity="1"
     inkscape:pageshadow="0"
     inkscape:pageopacity="0"
     inkscape:pagecheckerboard="true"
     inkscape:document-units="px"
     showgrid="false"
     inkscape:zoom="0.67081229"
     inkscape:cx="105.84183"
     inkscape:cy="543.37108"
     inkscape:window-width="1465"
     inkscape:window-height="997"
     inkscape:window-x="0"
     inkscape:window-y="25"
     inkscape:window-maximized="0"
     inkscape:current-layer="layer1"
     units="px" />
  <defs
     id="defs266" />
  <g
     inkscape:label="Camada 1"
     inkscape:groupmode="layer"
     id="layer1">
    <g
       id="g117"
       style="clip-rule:evenodd;fill:#008bd1;fill-opacity:1;fill-rule:evenodd;image-rendering:optimizeQuality;shape-rendering:geometricPrecision;text-rendering:geometricPrecision"
       transform="matrix(0.2815246,0,0,0.2813776,16.404358,1.5870847)">
      <path
         class="fil0"
         d="M 221.37,30.32 C 179.92,-14.08 102.46,-9.14 48.36,41.37 -5.74,91.87 -16,168.81 25.45,213.21 c 41.45,44.4 118.91,39.45 173.01,-11.06 54.1,-50.5 64.36,-127.44 22.91,-171.83 z m -46,131.77 v 0 c -40.81,38.1 -99.26,41.8 -130.55,8.28 C 13.52,136.85 21.24,78.79 62.05,40.69 102.86,2.6 161.31,-1.11 192.6,32.41 c 31.3,33.52 23.58,91.58 -17.23,129.68 z"
         id="path111"
         style="fill:#008bd1;fill-opacity:1" />
      <path
         class="fil0"
         d="m 280.2,143.27 c -41.45,-44.4 -118.91,-39.46 -173.01,11.05 -54.1,50.5 -64.36,127.44 -22.91,171.84 41.45,44.4 118.9,39.45 173.01,-11.06 54.1,-50.5 64.35,-127.43 22.91,-171.83 z m -46,131.77 v 0 c -40.81,38.1 -99.26,41.8 -130.55,8.28 -31.3,-33.52 -23.58,-91.58 17.23,-129.68 40.81,-38.09 99.26,-41.8 130.55,-8.28 31.3,33.53 23.58,91.58 -17.23,129.68 z"
         id="path113"
         style="fill:#008bd1;fill-opacity:1" />
      <path
         class="fil0"
         d="M 339.2,256.95 C 297.75,212.55 220.29,217.5 166.19,268 c -54.1,50.51 -64.36,127.44 -22.91,171.84 41.45,44.4 118.91,39.46 173.01,-11.05 54.1,-50.5 64.36,-127.44 22.91,-171.84 z m -46,131.78 v 0 c -40.8,38.09 -99.26,41.8 -130.55,8.28 -31.3,-33.53 -23.58,-91.59 17.23,-129.68 40.81,-38.1 99.26,-41.81 130.55,-8.28 31.3,33.52 23.58,91.58 -17.23,129.68 z"
         id="path115"
         style="fill:#008bd1;fill-opacity:1" />
    </g>
  </g>
</svg>
