<?xml version="1.0" encoding="UTF-8"?>
<!DOCTYPE svg PUBLIC "-//W3C//DTD SVG 1.1//EN" "http://www.w3.org/Graphics/SVG/1.1/DTD/svg11.dtd">
<!-- Creator: CorelDRAW -->
<svg xmlns="http://www.w3.org/2000/svg" xml:space="preserve" width="84.3622mm" height="105.397mm" version="1.1" style="shape-rendering:geometricPrecision; text-rendering:geometricPrecision; image-rendering:optimizeQuality; fill-rule:evenodd; clip-rule:evenodd"
viewBox="0 0 10535.18 13162.02"
 xmlns:xlink="http://www.w3.org/1999/xlink"
 xmlns:xodm="http://www.corel.com/coreldraw/odm/2003">
 <defs>
  <style type="text/css">
   <![CDATA[
    .str0 {stroke:#373535;stroke-width:9.52;stroke-miterlimit:22.9256}
    .fil0 {fill:#FFFCD6}
    .fil1 {fill:#576F8B}
    .fil3 {fill:#596E89}
    .fil5 {fill:#596E8D}
    .fil4 {fill:#B1B7C5}
    .fil2 {fill:#B1B7C7}
   ]]>
  </style>
 </defs>
 <g id="Layer_x0020_1">
  <metadata id="CorelCorpID_0Corel-Layer"/>
  <g id="_105553287070272">
   <g>
    <path id="cupomFrenteTop" class="fil0 str0" d="M1099.03 10624.07c-328.66,-100.62 -497.37,-452.6 -525.71,-1025.14l-13.15 -8490.18c-1.31,-590.88 -194.29,-942.16 -538.85,-1103.99l5615.98 0c379.56,51.58 554.01,410.87 504.5,1106.07l-5.98 9516.11 -5036.8 -2.86z"/>
    <g>
     <rect class="fil1" x="2041.82" y="1012.56" width="2766.41" height="497.89" rx="241.88" ry="248.95"/>
     <rect class="fil2" x="1223.55" y="2380.1" width="3150.67" height="303.4" rx="151.7" ry="151.7"/>
     <rect class="fil2" x="1233.37" y="3212.5" width="3150.67" height="303.4" rx="151.7" ry="151.7"/>
     <rect class="fil2" x="1243.2" y="4044.91" width="3150.67" height="303.4" rx="151.7" ry="151.7"/>
     <rect class="fil2" x="1253.03" y="4877.31" width="3150.67" height="303.4" rx="151.7" ry="151.7"/>
     <rect class="fil2" x="1262.86" y="5709.71" width="3150.67" height="303.4" rx="151.7" ry="151.7"/>
     <rect class="fil2" x="1272.69" y="6542.12" width="3150.67" height="303.4" rx="151.7" ry="151.7"/>
     <rect class="fil2" x="1227.07" y="7331.61" width="3150.67" height="303.4" rx="151.7" ry="151.7"/>
     <rect class="fil2" x="1234.65" y="8147.7" width="3150.67" height="303.4" rx="151.7" ry="151.7"/>
     <rect class="fil2" x="1242.23" y="8963.8" width="3150.67" height="303.4" rx="151.7" ry="151.7"/>
     <rect class="fil2" x="1249.81" y="9779.89" width="3150.67" height="303.4" rx="151.7" ry="151.7"/>
     <rect class="fil3" x="4708.73" y="2364.54" width="894.63" height="318.96" rx="159.48" ry="159.48"/>
     <rect class="fil3" x="4718.56" y="3196.94" width="894.63" height="318.96" rx="159.48" ry="159.48"/>
     <rect class="fil3" x="4728.39" y="4029.35" width="894.63" height="318.96" rx="159.48" ry="159.48"/>
     <rect class="fil3" x="4738.22" y="4861.75" width="894.63" height="318.96" rx="159.48" ry="159.48"/>
     <rect class="fil3" x="4748.05" y="5694.15" width="894.63" height="318.96" rx="159.48" ry="159.48"/>
     <rect class="fil3" x="4757.87" y="6526.56" width="894.63" height="318.96" rx="159.48" ry="159.48"/>
     <rect class="fil3" x="4712.26" y="7316.05" width="894.63" height="318.96" rx="159.48" ry="159.48"/>
     <rect class="fil3" x="4719.84" y="8132.14" width="894.63" height="318.96" rx="159.48" ry="159.48"/>
     <rect class="fil3" x="4727.42" y="8948.24" width="894.63" height="318.96" rx="159.48" ry="159.48"/>
     <rect class="fil3" x="4735" y="9764.33" width="894.63" height="318.96" rx="159.48" ry="159.48"/>
    </g>
   </g>
  </g>
  <g id="_105553287065120">
   <path class="fil4 str0" d="M2132.08 7085.33l5789.9 0 0 3542.09 -6872.23 0c480.04,0 616.93,-961.92 564.85,-1848.55 -52.13,-886.64 130.74,-1662.37 517.48,-1693.54z"/>
   <path id="cupomFrenteBotton" class="fil0 str0" d="M7939.52 7076.5c103.03,15.42 378.01,477.92 386.16,1065.63l17.93 5014 -5081.26 1.14c-294.92,-22.63 -471.59,-352.72 -551.98,-933.13l13.14 -4021.67c-85.62,-751.54 -291.27,-1094.99 -591.42,-1117.13l5807.44 -8.83z"/>
   <g>
    <rect class="fil4" x="3417.57" y="7732.06" width="3150.67" height="303.4" rx="151.7" ry="151.7"/>
    <rect class="fil5" x="6902.76" y="7716.5" width="894.63" height="318.96" rx="159.48" ry="159.48"/>
    <rect class="fil4" x="3387.34" y="8556.69" width="3150.67" height="303.4" rx="151.7" ry="151.7"/>
    <rect class="fil5" x="6872.52" y="8541.13" width="894.63" height="318.96" rx="159.48" ry="159.48"/>
    <rect class="fil4" x="3389.38" y="9381.31" width="3150.67" height="303.4" rx="151.7" ry="151.7"/>
    <rect class="fil5" x="6874.57" y="9365.75" width="894.63" height="318.96" rx="159.48" ry="159.48"/>
    <rect class="fil4" x="3391.43" y="10205.93" width="3150.67" height="303.4" rx="151.7" ry="151.7"/>
    <rect class="fil4" x="3379.64" y="11023.76" width="3150.67" height="303.4" rx="151.7" ry="151.7"/>
    <rect class="fil4" x="3367.86" y="11841.59" width="3150.67" height="303.4" rx="151.7" ry="151.7"/>
    <rect class="fil5" x="6876.62" y="10190.37" width="894.63" height="318.96" rx="159.48" ry="159.48"/>
    <rect class="fil5" x="6864.83" y="11008.2" width="894.63" height="318.96" rx="159.48" ry="159.48"/>
    <rect class="fil5" x="6853.04" y="11826.03" width="894.63" height="318.96" rx="159.48" ry="159.48"/>
   </g>
  </g>
  <g id="_105553287117216">
   <path class="fil4 str0" d="M4326.92 10791.56l5147.51 -9.72 -34.14 1494.36c-3.31,404.09 -182.35,867.57 -426.9,879.92l-5747.21 0c458.41,0 523.3,-717.05 531.28,-1184.29 7.98,-467.24 234.81,-1175.07 529.47,-1180.27z"/>
   <path id="cupomFrenteBotton_0" class="fil0 str0" d="M10096.12 10778.43c225.61,105.17 379.74,353.25 433.71,801.71l-5585.65 0c-113.98,-512.3 -305.79,-791.17 -591.42,-788.57l5743.36 -13.14z"/>
  </g>
 </g>
</svg>
