<?xml version="1.0" encoding="UTF-8"?>
<!DOCTYPE svg PUBLIC "-//W3C//DTD SVG 1.1//EN" "http://www.w3.org/Graphics/SVG/1.1/DTD/svg11.dtd">
<!-- Creator: CorelDRAW -->
<svg xmlns="http://www.w3.org/2000/svg" xml:space="preserve" width="127.67mm" height="183.261mm" version="1.1" style="shape-rendering:geometricPrecision; text-rendering:geometricPrecision; image-rendering:optimizeQuality; fill-rule:evenodd; clip-rule:evenodd"
viewBox="0 0 13391.29 19222.25"
 xmlns:xlink="http://www.w3.org/1999/xlink"
 xmlns:xodm="http://www.corel.com/coreldraw/odm/2003">
 <defs>
  <style type="text/css">
   <![CDATA[
    .str0 {stroke:#373535;stroke-width:20.98;stroke-miterlimit:22.9256}
    .fil8 {fill:#FFFCD6}
    .fil3 {fill:#242D3C}
    .fil2 {fill:#3B4D63}
    .fil9 {fill:#576F8B}
    .fil11 {fill:#596E89}
    .fil13 {fill:#596E8D}
    .fil12 {fill:#B1B7C5}
    .fil10 {fill:#B1B7C7}
    .fil1 {fill:#FFD1BA}
    .fil4 {fill:#242D3C;fill-rule:nonzero}
    .fil5 {fill:#576F8B;fill-rule:nonzero}
    .fil7 {fill:#DD927B;fill-rule:nonzero}
    .fil0 {fill:#F4B292;fill-rule:nonzero}
    .fil6 {fill:#FFCCAA;fill-rule:nonzero}
   ]]>
  </style>
 </defs>
 <g id="Layer_x0020_1">
  <metadata id="CorelCorpID_0Corel-Layer"/>
  <g id="_105553289810880">
   <g>
    <path id="mao" class="fil0" d="M10329.3 13683.7l0 900.13 -4730.75 2059.31 -644.59 -837.88 -1032.38 -1013.84 -551.4 -523.5 -907.78 -895.84c-445.97,-501.44 -1036.66,-968.59 -1037.8,-1553.76l-10.91 -5542.93 -111.21 -187.55c0,0 -1021.26,-1016.14 -1025.73,-1458.08 -4.48,-441.96 224.54,-709.8 417.18,-743.66 192.64,-33.86 414.57,39.69 672.34,140.01 3514.29,1876.51 5602.93,3799.77 7462.12,5730.53 -211.03,-1052.43 -150.64,-3303.81 70.98,-4383.27 27.41,-170.65 61.78,-342.15 198.31,-526.01 115.32,-139.84 268.04,-221.84 459.05,-221.69 214.1,0.17 276.06,93.81 417.91,272.71 27.28,473.41 96.18,974.73 164.59,1441.87 35.03,239.3 63.57,476.38 99.58,682.15 144.16,1048.95 598.25,2127.59 726.87,3315.47 -17.64,451.21 -98.3,902.4 -213.52,1353.61l-422.85 1992.22z"/>
    <path id="unha1" class="fil1" d="M10004.38 4932.4c-166.4,-37.09 -280.17,-16.2 -378.55,81.85 -92.97,92.67 -138.92,470.6 12.22,996.83 79.72,277.6 313.24,387.21 530.92,363.19 -37.59,-439.3 -36.39,-1135.1 -112.78,-1317.89l-51.82 -123.98z"/>
   </g>
   <g>
    <path class="fil2 str0" d="M5468.11 17677.2l5709.66 -2507.42c284.16,-124.79 631.33,0.39 743.51,289.75l1454.69 3752.23 -7852.19 0 -345.41 -791.05c-124.18,-284.42 5.6,-618.73 289.75,-743.51z"/>
    <path class="fil3 str0" d="M5659.63 16609.52l4568.37 -2006.22c303.74,-133.39 673.32,1.02 794.75,309.72l108.95 276.98 -5663.59 2487.19 -118.2 -272.92c-131.83,-304.41 5.98,-661.36 309.72,-794.75z"/>
    <ellipse class="fil3 str0" cx="6073.27" cy="18318.63" rx="379.59" ry="393.14"/>
   </g>
  </g>
  <g id="_105553289843328">
   <rect id="celular" class="fil4" x="1413.7" width="7513.8" height="14303.85" rx="776.21" ry="776.21"/>
   <rect id="tela" class="fil5" x="2160.41" y="851.81" width="6545.45" height="12554.28" rx="331.74" ry="331.74"/>
   <g>
    <polygon class="fil2" points="2160.41,9180.39 8705.86,2434.02 8705.86,6374.77 2160.41,13060.92 "/>
    <polygon class="fil2" points="2160.41,4445.35 5621.76,851.81 7681.8,851.81 2160.41,6599.64 "/>
   </g>
  </g>
  <g id="_105553289934080">
   <g>
    <path id="dedos" class="fil0" d="M1320.42 6105.95l75.21 123.51 1.14 839.13c0,0 593.04,631.97 595.36,1216.19 2.32,584.23 -207.7,711.61 -388.34,889.87 268.55,245.35 657.18,847.73 652.19,1248.3 -5,400.52 -233.34,596.38 -346.76,746.87 49.92,223.42 103.19,800.54 -131.26,981.68 -234.45,181.15 -495.3,153.42 -768.6,67.09 -273.3,-86.33 -754.27,-572.19 -814.93,-914.94 -60.66,-342.76 73.1,-641.76 281.78,-796.12 -237.61,-238.95 -472.92,-667.94 -476.13,-1017.47 -3.21,-349.52 133.45,-707.85 462.19,-869.56 -140.88,-295.88 -562.82,-607.31 -429.46,-1362.52 133.36,-755.21 1287.63,-1152.01 1287.63,-1152.01z"/>
    <path id="unha5" class="fil6" d="M1384.33 11234.56c94.88,50.93 -126.35,760.83 -281.36,728.71 -148.86,-30.84 -464.83,-210.63 -520.61,-365.71 -162.15,-450.78 197.63,-872.11 334.99,-691.59 174.44,229.26 194.1,182.09 466.99,328.59l-0.01 0z"/>
    <path id="unha4" class="fil6" d="M1612.67 10191.95c-6.38,350 -219.13,663.91 -374.17,664.78 -170.55,0.94 -646.15,-384.64 -654.68,-584.34 -13.43,-314.32 85.88,-666.84 359.74,-666.84 273.86,0 673.24,360.1 669.11,586.4z"/>
    <path id="unha3" class="fil6" d="M1497.92 8203.24c-6.38,350 -318.16,698.96 -446.36,699.84 -152.02,1.05 -592.52,-413.52 -601.05,-613.22 -13.43,-314.32 106.51,-675.09 380.36,-675.09 273.86,0 671.18,362.15 667.05,588.46l0 0.01z"/>
   </g>
   <path class="fil7" d="M1112.14 3954.14l280.51 107.25 4.12 3007.2c-107.78,-157.51 -207.58,-319.03 -282.56,-492.94l-0.28 -362.95 221.55 -90.43 -221.8 -226.05 -1.53 -1942.08z"/>
  </g>
  <g id="_105553290227616">
   <path id="cupomSombra" class="fil2" d="M7696.66 12577.58l-3235.75 -10.76c-1057.88,12.31 -1240.66,-331.44 -1297.71,-655.31l-58.55 -8337.11c-0.83,-374.76 -153.86,-706.91 -260.84,-767.75l-4.23 -159.52 4735.93 -2.37 121.15 9932.82z"/>
   <g>
    <path id="cupomFrenteTop" class="fil8" d="M3763.7 11564.17c-276.05,-84.51 -417.76,-380.15 -441.56,-861.04l-11.04 -7131.1c-1.1,-496.3 -163.19,-791.34 -452.59,-927.27l4717 0c318.8,43.32 465.32,345.1 423.75,929.01l-5.02 7992.81 -4230.53 -2.4z"/>
    <g>
     <rect class="fil9" x="4555.57" y="3491.24" width="2323.58" height="418.19" rx="203.16" ry="209.1"/>
     <rect class="fil10" x="3868.29" y="4639.87" width="2646.32" height="254.83" rx="127.42" ry="127.42"/>
     <rect class="fil10" x="3876.54" y="5339.02" width="2646.32" height="254.83" rx="127.42" ry="127.42"/>
     <rect class="fil10" x="3884.8" y="6038.18" width="2646.32" height="254.83" rx="127.42" ry="127.42"/>
     <rect class="fil10" x="3893.05" y="6737.33" width="2646.32" height="254.83" rx="127.42" ry="127.42"/>
     <rect class="fil10" x="3901.3" y="7436.49" width="2646.32" height="254.83" rx="127.42" ry="127.42"/>
     <rect class="fil10" x="3909.56" y="8135.64" width="2646.32" height="254.83" rx="127.42" ry="127.42"/>
     <rect class="fil10" x="3871.24" y="8798.76" width="2646.32" height="254.83" rx="127.42" ry="127.42"/>
     <rect class="fil10" x="3877.61" y="9484.21" width="2646.32" height="254.83" rx="127.42" ry="127.42"/>
     <rect class="fil10" x="3883.98" y="10169.67" width="2646.32" height="254.83" rx="127.42" ry="127.42"/>
     <rect class="fil10" x="3890.34" y="10855.12" width="2646.32" height="254.83" rx="127.42" ry="127.42"/>
     <rect class="fil11" x="6795.58" y="4626.8" width="751.42" height="267.9" rx="133.96" ry="133.96"/>
     <rect class="fil11" x="6803.83" y="5325.95" width="751.42" height="267.9" rx="133.96" ry="133.96"/>
     <rect class="fil11" x="6812.09" y="6025.11" width="751.42" height="267.9" rx="133.96" ry="133.96"/>
     <rect class="fil11" x="6820.34" y="6724.26" width="751.42" height="267.9" rx="133.96" ry="133.96"/>
     <rect class="fil11" x="6828.6" y="7423.42" width="751.42" height="267.9" rx="133.96" ry="133.96"/>
     <rect class="fil11" x="6836.85" y="8122.57" width="751.42" height="267.9" rx="133.96" ry="133.96"/>
     <rect class="fil11" x="6798.53" y="8785.69" width="751.42" height="267.9" rx="133.96" ry="133.96"/>
     <rect class="fil11" x="6804.9" y="9471.14" width="751.42" height="267.9" rx="133.96" ry="133.96"/>
     <rect class="fil11" x="6811.27" y="10156.6" width="751.42" height="267.9" rx="133.96" ry="133.96"/>
     <rect class="fil11" x="6817.63" y="10842.05" width="751.42" height="267.9" rx="133.96" ry="133.96"/>
    </g>
   </g>
  </g>
  <g id="_105553289836128">
   <path class="fil12" d="M4631.39 8591.9l4863.08 0 0 2975.09 -5772.15 0c403.2,0 518.18,-807.94 474.43,-1552.64 -43.78,-744.71 109.81,-1396.26 434.64,-1422.44z"/>
   <path id="cupomFrenteBotton" class="fil8" d="M9509.19 8584.48c86.53,12.95 317.5,401.41 324.34,895.05l15.06 4211.38 -4267.87 0.95c-247.71,-19.01 -396.1,-296.26 -463.62,-783.76l11.03 -3377.9c-71.91,-631.24 -244.65,-919.71 -496.75,-938.3l4877.8 -7.42z"/>
   <g>
    <rect class="fil12" x="5711.1" y="9135.11" width="2646.32" height="254.83" rx="127.42" ry="127.42"/>
    <rect class="fil13" x="8638.39" y="9122.04" width="751.42" height="267.9" rx="133.96" ry="133.96"/>
    <rect class="fil12" x="5685.7" y="9827.73" width="2646.32" height="254.83" rx="127.42" ry="127.42"/>
    <rect class="fil13" x="8613" y="9814.66" width="751.42" height="267.9" rx="133.96" ry="133.96"/>
    <rect class="fil12" x="5687.42" y="10520.35" width="2646.32" height="254.83" rx="127.42" ry="127.42"/>
    <rect class="fil13" x="8614.72" y="10507.28" width="751.42" height="267.9" rx="133.96" ry="133.96"/>
    <rect class="fil12" x="5689.14" y="11212.97" width="2646.32" height="254.83" rx="127.42" ry="127.42"/>
    <rect class="fil12" x="5679.24" y="11899.88" width="2646.32" height="254.83" rx="127.42" ry="127.42"/>
    <rect class="fil12" x="5669.34" y="12586.79" width="2646.32" height="254.83" rx="127.42" ry="127.42"/>
    <rect class="fil13" x="8616.44" y="11199.9" width="751.42" height="267.9" rx="133.96" ry="133.96"/>
    <rect class="fil13" x="8606.53" y="11886.81" width="751.42" height="267.9" rx="133.96" ry="133.96"/>
    <rect class="fil13" x="8596.63" y="12573.73" width="751.42" height="267.9" rx="133.96" ry="133.96"/>
   </g>
  </g>
  <g id="_105553290043072">
   <path class="fil12" d="M6474.88 11704.85l4323.51 -8.16 -28.68 1255.15c-2.78,339.4 -153.16,728.69 -358.57,739.07l-4827.22 0c385.03,0 439.53,-602.27 446.23,-994.71 6.7,-392.45 197.22,-986.97 444.71,-991.34z"/>
   <path id="cupomFrenteBotton_0" class="fil8" d="M11321.38 11678.49c189.49,88.34 318.95,296.7 364.28,673.37l-4691.52 0c-95.73,-430.29 -256.84,-664.52 -496.75,-662.34l4823.99 -11.03z"/>
  </g>
 </g>
</svg>
