<?xml version="1.0" encoding="UTF-8"?>
<!DOCTYPE svg PUBLIC "-//W3C//DTD SVG 1.1//EN" "http://www.w3.org/Graphics/SVG/1.1/DTD/svg11.dtd">
<!-- Creator: CorelDRAW -->
<svg xmlns="http://www.w3.org/2000/svg" xml:space="preserve" width="97.9308mm" height="136.37mm" version="1.1" style="shape-rendering:geometricPrecision; text-rendering:geometricPrecision; image-rendering:optimizeQuality; fill-rule:evenodd; clip-rule:evenodd"
viewBox="0 0 10120.56 14093.02"
 xmlns:xlink="http://www.w3.org/1999/xlink"
 xmlns:xodm="http://www.corel.com/coreldraw/odm/2003">
 <defs>
  <style type="text/css">
   <![CDATA[
    .fil3 {fill:#FFFCD6}
    .fil2 {fill:#3B4D63}
    .fil4 {fill:#576F8B}
    .fil6 {fill:#596E89}
    .fil8 {fill:#596E8D}
    .fil7 {fill:#B1B7C5}
    .fil5 {fill:#B1B7C7}
    .fil0 {fill:#242D3C;fill-rule:nonzero}
    .fil1 {fill:#576F8B;fill-rule:nonzero}
   ]]>
  </style>
 </defs>
 <g id="Layer_x0020_1">
  <metadata id="CorelCorpID_0Corel-Layer"/>
  <g id="_105553288604928">
   <rect id="celular" class="fil0" width="7403.04" height="14093.02" rx="764.77" ry="764.77"/>
   <rect id="tela" class="fil1" x="735.71" y="839.26" width="6448.97" height="12369.24" rx="326.85" ry="326.85"/>
   <g>
    <polygon class="fil2" points="735.71,9045.08 7184.68,2398.15 7184.68,6280.81 735.71,12868.41 "/>
    <polygon class="fil2" points="735.71,4379.83 4146.04,839.26 6175.71,839.26 735.71,6502.36 "/>
   </g>
  </g>
  <g id="_105553289695968">
   <path id="cupomSombra" class="fil2" d="M6190.35 12392.19l-3188.06 -10.6c-1042.29,12.13 -1222.37,-326.56 -1278.58,-645.65l-57.69 -8214.22c-0.82,-369.24 -151.6,-696.49 -257,-756.44l-4.16 -157.17 4666.12 -2.34 119.36 9786.41z"/>
   <g>
    <path id="cupomFrenteTop" class="fil3" d="M2315.37 11393.72c-271.98,-83.26 -411.6,-374.55 -435.05,-848.35l-10.88 -7025.99c-1.09,-488.98 -160.78,-779.68 -445.92,-913.6l4647.47 0c314.1,42.68 458.46,340.01 417.5,915.32l-4.95 7875 -4168.17 -2.37z"/>
    <g>
     <rect class="fil4" x="3095.56" y="3439.78" width="2289.33" height="412.02" rx="200.17" ry="206.02"/>
     <rect class="fil5" x="2418.41" y="4571.48" width="2607.32" height="251.07" rx="125.54" ry="125.54"/>
     <rect class="fil5" x="2426.54" y="5260.33" width="2607.32" height="251.07" rx="125.54" ry="125.54"/>
     <rect class="fil5" x="2434.68" y="5949.18" width="2607.32" height="251.07" rx="125.54" ry="125.54"/>
     <rect class="fil5" x="2442.81" y="6638.03" width="2607.32" height="251.07" rx="125.54" ry="125.54"/>
     <rect class="fil5" x="2450.94" y="7326.87" width="2607.32" height="251.07" rx="125.54" ry="125.54"/>
     <rect class="fil5" x="2459.07" y="8015.72" width="2607.32" height="251.07" rx="125.54" ry="125.54"/>
     <rect class="fil5" x="2421.32" y="8669.06" width="2607.32" height="251.07" rx="125.54" ry="125.54"/>
     <rect class="fil5" x="2427.6" y="9344.42" width="2607.32" height="251.07" rx="125.54" ry="125.54"/>
     <rect class="fil5" x="2433.87" y="10019.77" width="2607.32" height="251.07" rx="125.54" ry="125.54"/>
     <rect class="fil5" x="2440.14" y="10695.12" width="2607.32" height="251.07" rx="125.54" ry="125.54"/>
     <rect class="fil6" x="5302.55" y="4558.6" width="740.35" height="263.95" rx="131.98" ry="131.98"/>
     <rect class="fil6" x="5310.69" y="5247.45" width="740.35" height="263.95" rx="131.98" ry="131.98"/>
     <rect class="fil6" x="5318.82" y="5936.3" width="740.35" height="263.95" rx="131.98" ry="131.98"/>
     <rect class="fil6" x="5326.95" y="6625.15" width="740.35" height="263.95" rx="131.98" ry="131.98"/>
     <rect class="fil6" x="5335.09" y="7314" width="740.35" height="263.95" rx="131.98" ry="131.98"/>
     <rect class="fil6" x="5343.22" y="8002.85" width="740.35" height="263.95" rx="131.98" ry="131.98"/>
     <rect class="fil6" x="5305.47" y="8656.19" width="740.35" height="263.95" rx="131.98" ry="131.98"/>
     <rect class="fil6" x="5311.74" y="9331.54" width="740.35" height="263.95" rx="131.98" ry="131.98"/>
     <rect class="fil6" x="5318.01" y="10006.89" width="740.35" height="263.95" rx="131.98" ry="131.98"/>
     <rect class="fil6" x="5324.29" y="10682.25" width="740.35" height="263.95" rx="131.98" ry="131.98"/>
    </g>
   </g>
  </g>
  <g id="_105553290017312">
   <path class="fil7" d="M3170.26 8465.25l4791.4 0 0 2931.24 -5687.07 0c397.25,0 510.54,-796.03 467.44,-1529.76 -43.14,-733.73 108.19,-1375.68 428.24,-1401.48z"/>
   <path id="cupomFrenteBotton" class="fil3" d="M7976.17 8457.95c85.26,12.76 312.82,395.5 319.56,881.85l14.84 4149.3 -4204.96 0.94c-244.06,-18.73 -390.26,-291.9 -456.79,-772.21l10.87 -3328.11c-70.85,-621.93 -241.04,-906.15 -489.43,-924.47l4805.91 -7.31z"/>
   <g>
    <rect class="fil7" x="4234.06" y="9000.46" width="2607.32" height="251.07" rx="125.54" ry="125.54"/>
    <rect class="fil8" x="7118.2" y="8987.58" width="740.35" height="263.95" rx="131.98" ry="131.98"/>
    <rect class="fil7" x="4209.04" y="9682.87" width="2607.32" height="251.07" rx="125.54" ry="125.54"/>
    <rect class="fil8" x="7093.18" y="9669.99" width="740.35" height="263.95" rx="131.98" ry="131.98"/>
    <rect class="fil7" x="4210.73" y="10365.28" width="2607.32" height="251.07" rx="125.54" ry="125.54"/>
    <rect class="fil8" x="7094.88" y="10352.4" width="740.35" height="263.95" rx="131.98" ry="131.98"/>
    <rect class="fil7" x="4212.43" y="11047.69" width="2607.32" height="251.07" rx="125.54" ry="125.54"/>
    <rect class="fil7" x="4202.67" y="11724.48" width="2607.32" height="251.07" rx="125.54" ry="125.54"/>
    <rect class="fil7" x="4192.92" y="12401.27" width="2607.32" height="251.07" rx="125.54" ry="125.54"/>
    <rect class="fil8" x="7096.57" y="11034.81" width="740.35" height="263.95" rx="131.98" ry="131.98"/>
    <rect class="fil8" x="7086.82" y="11711.6" width="740.35" height="263.95" rx="131.98" ry="131.98"/>
    <rect class="fil8" x="7077.06" y="12388.39" width="740.35" height="263.95" rx="131.98" ry="131.98"/>
   </g>
  </g>
  <g id="_105553286641280">
   <path class="fil7" d="M4986.58 11532.33l4259.79 -8.04 -28.25 1236.64c-2.74,334.4 -150.9,717.95 -353.28,728.17l-4756.06 0c379.35,0 433.05,-593.39 439.66,-980.05 6.6,-386.66 194.32,-972.43 438.16,-976.72z"/>
   <path id="cupomFrenteBotton_0" class="fil3" d="M9761.64 11506.36c186.7,87.04 314.25,292.33 358.91,663.45l-4622.37 0c-94.32,-423.95 -253.06,-654.73 -489.43,-652.58l4752.88 -10.87z"/>
  </g>
 </g>
</svg>
